<svg width="33" height="33" viewBox="0 0 33 33" fill="none" xmlns="http://www.w3.org/2000/svg">
<g clip-path="url(#clip0_134_732)">
<path fill-rule="evenodd" clip-rule="evenodd" d="M11.1667 0.5C11.3435 0.5 11.513 0.570238 11.6381 0.695262C11.7631 0.820286 11.8333 0.989856 11.8333 1.16667V2.5C11.8333 2.86819 11.5349 3.16667 11.1667 3.16667C10.7985 3.16667 10.5 2.86819 10.5 2.5V1.16667C10.5 0.989856 10.5702 0.820286 10.6953 0.695262C10.8203 0.570238 10.9899 0.5 11.1667 0.5ZM25.8333 4.5H7.16667C6.45942 4.5 5.78115 4.78095 5.28105 5.28105C4.78095 5.78115 4.5 6.45942 4.5 7.16667V25.8333C4.5 26.5406 4.78095 27.2189 5.28105 27.719C5.78115 28.219 6.45942 28.5 7.16667 28.5H25.8333C26.5406 28.5 27.2189 28.219 27.719 27.719C28.219 27.2189 28.5 26.5406 28.5 25.8333V7.16667C28.5 6.45942 28.219 5.78115 27.719 5.28105C27.2189 4.78095 26.5406 4.5 25.8333 4.5ZM25.1667 24.5C25.1667 24.6768 25.0964 24.8464 24.9714 24.9714C24.8464 25.0964 24.6768 25.1667 24.5 25.1667H8.5C8.32319 25.1667 8.15362 25.0964 8.0286 24.9714C7.90357 24.8464 7.83333 24.6768 7.83333 24.5V8.5C7.83333 8.32319 7.90357 8.15362 8.0286 8.0286C8.15362 7.90357 8.32319 7.83333 8.5 7.83333H24.5C24.6768 7.83333 24.8464 7.90357 24.9714 8.0286C25.0964 8.15362 25.1667 8.32319 25.1667 8.5V24.5ZM9.83464 9.16699C9.46645 9.16699 9.16797 9.46547 9.16797 9.83366V23.167C9.16797 23.5352 9.46645 23.8337 9.83464 23.8337H23.168C23.5362 23.8337 23.8346 23.5352 23.8346 23.167V9.83366C23.8346 9.46547 23.5362 9.16699 23.168 9.16699H9.83464ZM17.6172 20.4337C17.3361 20.4337 17.0852 20.2573 16.99 19.9927L16.4513 18.4959C16.3561 18.2314 16.1052 18.055 15.824 18.055H13.4894C13.2065 18.055 12.9545 18.2335 12.8605 18.5003L12.3367 19.9884C12.2428 20.2552 11.9907 20.4337 11.7079 20.4337H11.6614C11.1964 20.4337 10.8743 19.9697 11.0367 19.5341L13.7462 12.2674C13.8435 12.0066 14.0925 11.8337 14.3709 11.8337H14.9714C15.2499 11.8337 15.4991 12.0068 15.5962 12.2678L18.3001 19.5345C18.4621 19.9701 18.14 20.4337 17.6753 20.4337H17.6172ZM21.168 19.767C21.168 20.1352 20.8695 20.4337 20.5013 20.4337C20.1331 20.4337 19.8346 20.1352 19.8346 19.767V12.5357C19.8346 12.1675 20.1331 11.869 20.5013 11.869C20.8695 11.869 21.168 12.1675 21.168 12.5357V19.767ZM14.4699 13.7849C14.5233 13.6001 14.8185 13.5953 14.8751 13.779C14.98 14.115 15.0622 14.3606 15.1218 14.5157L15.6191 15.9661C15.7674 16.3988 15.4459 16.849 14.9884 16.849H14.3623C13.904 16.849 13.5823 16.3972 13.7324 15.9641L14.1991 14.617C14.2985 14.3426 14.3889 14.0651 14.4699 13.7849ZM1.16667 10.5H2.5C2.86819 10.5 3.16667 10.7985 3.16667 11.1667C3.16667 11.5349 2.86819 11.8333 2.5 11.8333H1.16667C0.989856 11.8333 0.820286 11.7631 0.695262 11.6381C0.570238 11.513 0.5 11.3435 0.5 11.1667C0.5 10.9899 0.570238 10.8203 0.695262 10.6953C0.820286 10.5702 0.989856 10.5 1.16667 10.5ZM3.16667 16.4997C3.16667 16.1315 2.86819 15.833 2.5 15.833H1.16667C0.989856 15.833 0.820286 15.9032 0.695262 16.0283C0.570238 16.1533 0.5 16.3229 0.5 16.4997C0.5 16.6765 0.570238 16.8461 0.695262 16.9711C0.820286 17.0961 0.989856 17.1663 1.16667 17.1663H2.5C2.86819 17.1663 3.16667 16.8679 3.16667 16.4997ZM1.16667 21.167H2.5C2.86819 21.167 3.16667 21.4655 3.16667 21.8337C3.16667 22.2018 2.86819 22.5003 2.5 22.5003H1.16667C0.989856 22.5003 0.820286 22.4301 0.695262 22.3051C0.570238 22.18 0.5 22.0105 0.5 21.8337C0.5 21.6568 0.570238 21.4873 0.695262 21.3623C0.820286 21.2372 0.989856 21.167 1.16667 21.167ZM29.8333 11.1663C29.8333 11.5345 30.1318 11.833 30.5 11.833H31.8333C32.0101 11.833 32.1797 11.7628 32.3047 11.6377C32.4298 11.5127 32.5 11.3432 32.5 11.1663C32.5 10.9895 32.4298 10.82 32.3047 10.6949C32.1797 10.5699 32.0101 10.4997 31.8333 10.4997H30.5C30.1318 10.4997 29.8333 10.7982 29.8333 11.1663ZM31.8333 17.167H30.5C30.1318 17.167 29.8333 16.8685 29.8333 16.5003C29.8333 16.1321 30.1318 15.8337 30.5 15.8337H31.8333C32.0101 15.8337 32.1797 15.9039 32.3047 16.0289C32.4298 16.1539 32.5 16.3235 32.5 16.5003C32.5 16.6771 32.4298 16.8467 32.3047 16.9717C32.1797 17.0968 32.0101 17.167 31.8333 17.167ZM29.8333 21.8333C29.8333 22.2015 30.1318 22.5 30.5 22.5H31.8333C32.0101 22.5 32.1797 22.4298 32.3047 22.3047C32.4298 22.1797 32.5 22.0101 32.5 21.8333C32.5 21.6565 32.4298 21.487 32.3047 21.3619C32.1797 21.2369 32.0101 21.1667 31.8333 21.1667H30.5C30.1318 21.1667 29.8333 21.4651 29.8333 21.8333ZM22.306 0.695262C22.181 0.570238 22.0114 0.5 21.8346 0.5C21.6578 0.5 21.4883 0.570238 21.3632 0.695262C21.2382 0.820286 21.168 0.989856 21.168 1.16667V2.5C21.168 2.86819 21.4664 3.16667 21.8346 3.16667C22.2028 3.16667 22.5013 2.86819 22.5013 2.5V1.16667C22.5013 0.989856 22.4311 0.820286 22.306 0.695262ZM16.4987 0.5C16.6755 0.5 16.8451 0.570238 16.9701 0.695262C17.0951 0.820286 17.1654 0.989856 17.1654 1.16667V2.5C17.1654 2.86819 16.8669 3.16667 16.4987 3.16667C16.1305 3.16667 15.832 2.86819 15.832 2.5V1.16667C15.832 0.989856 15.9023 0.820286 16.0273 0.695262C16.1523 0.570238 16.3219 0.5 16.4987 0.5ZM11.8333 30.4997C11.8333 30.1315 11.5349 29.833 11.1667 29.833C10.7985 29.833 10.5 30.1315 10.5 30.4997V31.833C10.5 32.0098 10.5702 32.1794 10.6953 32.3044C10.8203 32.4294 10.9899 32.4997 11.1667 32.4997C11.3435 32.4997 11.513 32.4294 11.6381 32.3044C11.7631 32.1794 11.8333 32.0098 11.8333 31.833V30.4997ZM21.168 30.4997C21.168 30.1315 21.4664 29.833 21.8346 29.833C22.2028 29.833 22.5013 30.1315 22.5013 30.4997V31.833C22.5013 32.0098 22.4311 32.1794 22.306 32.3044C22.181 32.4294 22.0114 32.4997 21.8346 32.4997C21.6578 32.4997 21.4883 32.4294 21.3632 32.3044C21.2382 32.1794 21.168 32.0098 21.168 31.833V30.4997ZM17.1654 31.833V30.4997C17.1654 30.1315 16.8669 29.833 16.4987 29.833C16.1305 29.833 15.832 30.1315 15.832 30.4997V31.833C15.832 32.0098 15.9023 32.1794 16.0273 32.3044C16.1523 32.4294 16.3219 32.4997 16.4987 32.4997C16.6755 32.4997 16.8451 32.4294 16.9701 32.3044C17.0951 32.1794 17.1654 32.0098 17.1654 31.833Z" fill="url(#paint0_linear_134_732)"/>
</g>
<defs>
<linearGradient id="paint0_linear_134_732" x1="-5.34475" y1="-106.166" x2="97.3842" y2="-68.3644" gradientUnits="userSpaceOnUse">
<stop offset="0.401042" stop-color="#2F6CE6"/>
<stop offset="1" stop-color="#32C7E8"/>
</linearGradient>
<clipPath id="clip0_134_732">
<rect width="32" height="32" fill="white" transform="translate(0.5 0.5)"/>
</clipPath>
</defs>
</svg>
