<svg width="20" height="20" viewBox="0 0 20 20" fill="none" xmlns="http://www.w3.org/2000/svg">
<rect width="20" height="20" rx="3.33333" fill="#2F6CE6"/>
<path fill-rule="evenodd" clip-rule="evenodd" d="M15.7361 5.82856L8.98138 12.5833C8.92156 12.6436 8.84012 12.6775 8.75516 12.6775C8.67021 12.6775 8.58877 12.6436 8.52895 12.5833L5.09425 9.14856C5.03393 9.08873 5 9.0073 5 8.92234C5 8.83739 5.03393 8.75595 5.09425 8.69612L5.54031 8.25006C5.60014 8.18974 5.68157 8.15581 5.76653 8.15581C5.85149 8.15581 5.93292 8.18974 5.99275 8.25006L8.75198 11.0093L14.8376 4.92369C14.9636 4.80148 15.164 4.80148 15.29 4.92369L15.7361 5.37613C15.7964 5.43595 15.8303 5.51739 15.8303 5.60235C15.8303 5.6873 15.7964 5.76874 15.7361 5.82856Z" fill="white"/>
</svg>
