<svg width="41" height="40" viewBox="0 0 41 40" fill="none" xmlns="http://www.w3.org/2000/svg">
<path fill-rule="evenodd" clip-rule="evenodd" d="M14.7559 2.04C14.4789 1.48591 14.8818 0.833984 15.5013 0.833984H25.5013C26.1208 0.833984 26.5237 1.48591 26.2467 2.04L25.9928 2.54772C25.787 2.95937 25.9538 3.45993 26.3655 3.66575L29.2112 5.08863C29.6692 5.31763 29.8143 5.90166 29.5167 6.31835L26.1213 11.0719C25.8958 11.3876 25.9183 11.8168 26.1719 12.1104C26.3767 12.3474 26.6108 12.6219 26.8681 12.9292C27.8156 14.061 29.0807 15.6421 30.3475 17.4367C31.6124 19.2287 32.8906 21.2497 33.8554 23.2598C34.8129 25.2545 35.5 27.3157 35.5 29.1673C35.5 31.8835 34.5255 34.4418 32.069 36.2914C29.6513 38.1117 25.9008 39.1673 20.5 39.1673C15.0992 39.1673 11.3487 38.1117 8.93104 36.2914C6.47453 34.4418 5.5 31.8835 5.5 29.1673C5.5 27.3157 6.18712 25.2545 7.14456 23.2598C8.10945 21.2497 9.3876 19.2287 10.6525 17.4367C11.9193 15.6421 13.1844 14.061 14.1319 12.9292C14.3909 12.6198 14.6265 12.3437 14.8323 12.1055C15.086 11.8119 15.1085 11.3827 14.883 11.0669L11.4912 6.31835C11.1935 5.90166 11.3386 5.31763 11.7966 5.08863L14.6382 3.66784C15.0498 3.46201 15.2167 2.96145 15.0109 2.5498L14.7559 2.04ZM16.5155 10.485C16.6719 10.704 16.9245 10.834 17.1936 10.834H23.8142C24.0833 10.834 24.3359 10.704 24.4923 10.485L27.0267 6.93678C27.3244 6.5201 27.1793 5.93607 26.7213 5.70706L25.6201 5.15647C25.2085 4.95064 24.7079 5.1175 24.5021 5.52914L23.7467 7.04C23.5408 7.45164 23.0403 7.6185 22.6286 7.41267C22.217 7.20685 22.0501 6.70629 22.2559 6.29464L23.5499 3.70666C23.827 3.15258 23.4241 2.50065 22.8046 2.50065H18.198C17.5785 2.50065 17.1756 3.15258 17.4527 3.70666L18.7467 6.29464C18.9525 6.70629 18.7856 7.20685 18.374 7.41267C17.9623 7.6185 17.4618 7.45164 17.2559 7.04L16.5016 5.53123C16.2957 5.11958 15.7952 4.95273 15.3835 5.15855L14.2865 5.70706C13.8285 5.93607 13.6834 6.5201 13.9811 6.93678L16.5155 10.485ZM16.5279 12.6978C16.6391 12.5721 16.7992 12.5007 16.9671 12.5007H24.0329C24.2008 12.5007 24.3609 12.5721 24.4721 12.6978C24.7412 13.0022 25.1268 13.4457 25.5902 13.9991C26.5177 15.107 27.7527 16.6509 28.9859 18.3979C30.2209 20.1476 31.4428 22.085 32.3529 23.9811C33.2705 25.8926 33.8333 27.6856 33.8333 29.1673C33.8333 31.4511 33.037 33.4762 31.0665 34.9599C29.057 36.4729 25.7242 37.5006 20.5 37.5006C15.2758 37.5006 11.943 36.4729 9.93354 34.9599C7.96297 33.4762 7.16667 31.4511 7.16667 29.1673C7.16667 27.6856 7.72955 25.8926 8.6471 23.9811C9.55722 22.085 10.7791 20.1476 12.0141 18.3979C13.2473 16.6509 14.4823 15.107 15.4098 13.9991C15.8732 13.4457 16.2588 13.0022 16.5279 12.6978ZM20.5013 16.667C20.9615 16.667 21.3346 17.0401 21.3346 17.5003V17.5716C21.3346 18.009 21.6733 18.3691 22.1068 18.4269C23.2689 18.582 24.3414 18.8875 25.0198 19.2399C25.4282 19.4521 25.5872 19.9552 25.375 20.3636C25.1629 20.772 24.6598 20.9311 24.2514 20.7189C23.8219 20.4958 23.0816 20.2715 22.2324 20.1306C21.7517 20.0509 21.3346 20.4367 21.3346 20.9239V23.7168C21.3346 24.0792 21.5696 24.3976 21.9117 24.5171C22.4655 24.7107 23.0146 24.9355 23.4826 25.2204C24.3539 25.7507 25.0664 26.5656 25.0664 27.8403C25.0664 28.9479 24.6746 29.8367 23.9654 30.47C23.2835 31.0789 22.3824 31.3857 21.4617 31.5162C21.3892 31.5265 21.3346 31.5881 21.3346 31.6613V32.5003C21.3346 32.9606 20.9615 33.3337 20.5013 33.3337C20.0411 33.3337 19.668 32.9606 19.668 32.5003V32.3732C19.668 31.9298 19.3203 31.5664 18.8798 31.5158C17.754 31.3864 16.6222 31.1137 15.6308 30.7757C15.1952 30.6271 14.9625 30.1536 15.111 29.718C15.2595 29.2824 15.7331 29.0496 16.1687 29.1982C16.996 29.4803 17.9021 29.7015 18.7872 29.8242C19.2628 29.89 19.668 29.5076 19.668 29.0275V26.1482C19.668 25.7882 19.4358 25.4715 19.0976 25.3481C18.4897 25.1262 17.882 24.8576 17.3665 24.5006C16.4795 23.8863 15.8239 22.9799 15.8239 21.6394C15.8239 20.4905 16.3642 19.6484 17.1823 19.1149C17.6908 18.7833 18.2916 18.5783 18.9134 18.4594C19.3371 18.3784 19.668 18.0247 19.668 17.5933V17.5003C19.668 17.0401 20.0411 16.667 20.5013 16.667ZM19.668 20.9622C19.668 20.4652 19.2301 20.0655 18.7553 20.2125C18.4973 20.2923 18.2746 20.3923 18.0927 20.5109C17.7108 20.76 17.4906 21.095 17.4906 21.6394C17.4906 22.326 17.782 22.7611 18.3154 23.1305C18.3996 23.1888 18.4885 23.2445 18.582 23.298C19.0839 23.5855 19.668 23.1698 19.668 22.5913V20.9622ZM22.4139 26.5295C21.9077 26.2617 21.3346 26.6785 21.3346 27.2512V28.871C21.3346 29.3843 21.8044 29.7923 22.275 29.5873C22.507 29.4862 22.7005 29.3651 22.8554 29.2268C23.176 28.9405 23.3997 28.5214 23.3997 27.8403C23.3997 27.3262 23.1653 26.9784 22.6161 26.6441C22.5513 26.6046 22.4839 26.5665 22.4139 26.5295Z" fill="url(#paint0_linear_66_224)"/>
<defs>
<linearGradient id="paint0_linear_66_224" x1="0.0205508" y1="-126.944" x2="100.995" y2="-97.8657" gradientUnits="userSpaceOnUse">
<stop offset="0.390625" stop-color="#447EF2"/>
<stop offset="1" stop-color="#3FD3F3"/>
</linearGradient>
</defs>
</svg>
