<svg width="41" height="40" viewBox="0 0 41 40" fill="none" xmlns="http://www.w3.org/2000/svg">
<path fill-rule="evenodd" clip-rule="evenodd" d="M16.3372 0.833008C15.877 0.833008 15.5039 1.2061 15.5039 1.66634V9.99967C15.5039 10.4599 15.877 10.833 16.3372 10.833H24.6706C25.1308 10.833 25.5039 10.4599 25.5039 9.99967V1.66634C25.5039 1.2061 25.1308 0.833008 24.6706 0.833008H16.3372ZM18.0039 9.16634C17.5437 9.16634 17.1706 8.79325 17.1706 8.33301V3.33301C17.1706 2.87277 17.5437 2.49967 18.0039 2.49967H23.0039C23.4641 2.49967 23.8372 2.87277 23.8372 3.33301V8.33301C23.8372 8.79324 23.4641 9.16634 23.0039 9.16634H18.0039ZM21.3385 14.9993C21.3385 14.5391 20.9654 14.166 20.5052 14.166C20.045 14.166 19.6719 14.5391 19.6719 14.9993V18.3327C19.6719 18.7929 19.2988 19.166 18.8385 19.166H6.33724C5.877 19.166 5.50391 19.5391 5.50391 19.9993V24.9993C5.50391 25.4596 5.877 25.8327 6.33724 25.8327C6.79748 25.8327 7.17057 25.4596 7.17057 24.9993V21.666C7.17057 21.2058 7.54367 20.8327 8.00391 20.8327H18.8385C19.2988 20.8327 19.6719 21.2058 19.6719 21.666V24.9993C19.6719 25.4596 20.045 25.8327 20.5052 25.8327C20.9654 25.8327 21.3385 25.4596 21.3385 24.9993V21.666C21.3385 21.2058 21.7116 20.8327 22.1719 20.8327H33.0039C33.4641 20.8327 33.8372 21.2058 33.8372 21.666V24.9993C33.8372 25.4596 34.2103 25.8327 34.6706 25.8327C35.1308 25.8327 35.5039 25.4596 35.5039 24.9993V19.9993C35.5039 19.5391 35.1308 19.166 34.6706 19.166H22.1719C21.7116 19.166 21.3385 18.7929 21.3385 18.3327V14.9993ZM3.0026 34.166C3.0026 32.3251 4.49499 30.8327 6.33594 30.8327C8.17689 30.8327 9.66927 32.3251 9.66927 34.166C9.66927 36.007 8.17689 37.4994 6.33594 37.4994C4.49499 37.4994 3.0026 36.007 3.0026 34.166ZM6.33594 29.166C3.57451 29.166 1.33594 31.4046 1.33594 34.166C1.33594 36.9274 3.57451 39.166 6.33594 39.166C9.09736 39.166 11.3359 36.9274 11.3359 34.166C11.3359 31.4046 9.09736 29.166 6.33594 29.166ZM20.5039 30.8327C18.663 30.8327 17.1706 32.3251 17.1706 34.166C17.1706 36.007 18.663 37.4994 20.5039 37.4994C22.3449 37.4994 23.8372 36.007 23.8372 34.166C23.8372 32.3251 22.3449 30.8327 20.5039 30.8327ZM15.5039 34.166C15.5039 31.4046 17.7425 29.166 20.5039 29.166C23.2653 29.166 25.5039 31.4046 25.5039 34.166C25.5039 36.9274 23.2653 39.166 20.5039 39.166C17.7425 39.166 15.5039 36.9274 15.5039 34.166ZM31.3385 34.166C31.3385 32.3251 32.8309 30.8327 34.6719 30.8327C36.5128 30.8327 38.0052 32.3251 38.0052 34.166C38.0052 36.007 36.5128 37.4994 34.6719 37.4994C32.8309 37.4994 31.3385 36.007 31.3385 34.166ZM34.6719 29.166C31.9105 29.166 29.6719 31.4046 29.6719 34.166C29.6719 36.9274 31.9105 39.166 34.6719 39.166C37.4333 39.166 39.6719 36.9274 39.6719 34.166C39.6719 31.4046 37.4333 29.166 34.6719 29.166Z" fill="url(#paint0_linear_66_206)"/>
<defs>
<linearGradient id="paint0_linear_66_206" x1="-5.66606" y1="-126.944" x2="117.401" y2="-81.6557" gradientUnits="userSpaceOnUse">
<stop offset="0.390625" stop-color="#447EF2"/>
<stop offset="1" stop-color="#3FD3F3"/>
</linearGradient>
</defs>
</svg>
