<svg width="37" height="38" viewBox="0 0 37 38" fill="none" xmlns="http://www.w3.org/2000/svg">
<path fill-rule="evenodd" clip-rule="evenodd" d="M22.3571 0.720979C23.6548 0.545066 24.9723 0.845257 26.0658 1.56599C26.7829 2.03869 27.3718 2.67131 27.7909 3.40678C27.9913 3.75847 28.35 4.00075 28.7536 4.03086C30.1961 4.13847 31.6035 4.60519 32.8277 5.39415C34.2418 6.30556 35.3629 7.60574 36.0564 9.13861C36.7498 10.6715 36.9862 12.3719 36.737 14.0358C36.5303 15.4158 35.997 16.722 35.1866 17.8479C35.1804 17.8564 35.1818 17.8683 35.1897 17.8752C35.1982 17.8826 35.1991 17.8955 35.1917 17.904L35.185 17.9116C35.1749 17.9232 35.175 17.9404 35.1851 17.9519C35.6107 18.4377 35.9642 18.984 36.2335 19.5743C36.6223 20.4267 36.8265 21.3517 36.8328 22.2885C36.8391 23.2253 36.6473 24.1529 36.27 25.0104C36.0088 25.6042 35.6628 26.155 35.2439 26.6463C35.2355 26.6563 35.2357 26.671 35.2445 26.6807C35.2541 26.6912 35.2534 26.7076 35.2429 26.7172L35.097 26.8505C35.0394 26.9031 35.0137 26.9819 35.0276 27.0587C35.211 28.0704 35.215 29.1083 35.0376 30.1245C34.8238 31.3495 34.3513 32.5149 33.6516 33.5429C32.9519 34.571 32.0411 35.4381 30.98 36.0864C29.9188 36.7348 28.7316 37.1495 27.4976 37.3029C26.2635 37.4564 25.0109 37.345 23.8233 36.9762C22.6357 36.6075 21.5403 35.9898 20.6102 35.1644C20.255 34.8492 19.927 34.5065 19.629 34.14C19.0952 33.4835 17.9062 33.4835 17.3723 34.14C17.0743 34.5065 16.7464 34.8492 16.3912 35.1644C15.4611 35.9898 14.3657 36.6075 13.1781 36.9762C11.9904 37.345 10.7379 37.4564 9.50379 37.3029C8.26973 37.1495 7.08256 36.7348 6.02139 36.0864C4.96023 35.4381 4.04945 34.571 3.34977 33.5429C2.65008 32.5149 2.17757 31.3495 1.96373 30.1245C1.78616 29.1073 1.79033 28.0684 1.97431 27.0557C1.98814 26.9796 1.9626 26.9014 1.90551 26.8492L1.76028 26.7165C1.75016 26.7073 1.74945 26.6916 1.7587 26.6814C1.76718 26.6722 1.76739 26.658 1.75924 26.6485C1.33959 26.1566 0.992907 25.605 0.731316 25.0104C0.354049 24.1529 0.162279 23.2253 0.168576 22.2885C0.174873 21.3517 0.379096 20.4267 0.767856 19.5743C1.0374 18.9834 1.39143 18.4365 1.81762 17.9504C1.82748 17.9391 1.82753 17.9223 1.8177 17.9111L1.81104 17.9034C1.80391 17.8953 1.80475 17.8829 1.81291 17.8757C1.82054 17.8691 1.82184 17.8577 1.81591 17.8494C1.00484 16.7233 0.471109 15.4165 0.264359 14.0358C0.015198 12.3719 0.251524 10.6715 0.944969 9.13861C1.63841 7.60574 2.75951 6.30556 4.17369 5.39415C5.39786 4.60519 6.80521 4.13847 8.2477 4.03086C8.65137 4.00075 9.01001 3.75847 9.21042 3.40678C9.62954 2.67131 10.2184 2.03869 10.9356 1.56599C12.029 0.845257 13.3465 0.545066 14.6442 0.720979C15.942 0.896892 17.132 1.537 17.9941 2.52281C18.2531 2.81894 18.7483 2.81894 19.0073 2.52281C19.8693 1.537 21.0594 0.896892 22.3571 0.720979ZM19.2546 11.5806C18.8577 11.1838 18.1436 11.1838 17.7468 11.5806C16.731 12.5965 15.3532 13.1672 13.9166 13.1672C13.6112 13.1672 13.351 13.3773 13.2296 13.6576C12.7175 14.8402 11.54 15.6676 10.1693 15.6676C8.32832 15.6676 6.83594 14.1753 6.83594 12.3343C6.83594 10.4934 8.32832 9.00098 10.1693 9.00098C11.5396 9.00098 12.7168 9.82784 13.2291 11.0098C13.3506 11.2902 13.611 11.5005 13.9166 11.5005C14.9112 11.5005 15.865 11.1054 16.5683 10.4021C17.2715 9.69887 17.6666 8.74505 17.6666 7.75048L17.6666 6.46025C17.6666 6.21813 17.5788 5.98422 17.4194 5.80196L14.4204 2.37254L15.9106 4.07621C16.519 4.77175 17.3478 4.31557 16.7395 3.61996C16.1427 2.93748 15.3188 2.49433 14.4204 2.37254C13.5219 2.25075 12.6098 2.45858 11.8528 2.95755C11.0958 3.45651 10.5453 4.21283 10.303 5.0865C10.1964 5.4708 9.83253 5.72573 9.43495 5.69461C7.90887 5.57518 6.3654 5.96444 5.07656 6.79508C3.93203 7.53271 3.0247 8.58497 2.46348 9.82556C1.90226 11.0662 1.711 12.4424 1.91265 13.789C2.1143 15.1356 2.7003 16.3954 3.6003 17.4172L3.6964 17.5263C4.34134 18.2353 5.12435 18.8058 5.99792 19.2025C6.91476 19.6189 7.91011 19.8342 8.91707 19.8339H8.91729H9.33396C9.7942 19.8339 10.1673 20.207 10.1673 20.6673C10.1673 21.1275 9.7942 21.5006 9.33396 21.5006H8.91751H8.91729C7.67253 21.5009 6.44211 21.2347 5.30875 20.72C4.77354 20.477 4.26584 20.1811 3.79278 19.8378C3.32675 19.4997 2.65414 19.5365 2.39003 20.0482C2.35306 20.1198 2.31778 20.1924 2.28425 20.266C1.99295 20.9047 1.83992 21.5977 1.83521 22.2997C1.83049 23.0017 1.97418 23.6967 2.25687 24.3393C2.51962 24.9365 2.89692 25.4758 3.36692 25.927L3.48146 26.0317C4.39791 26.8692 5.59441 27.3339 6.83594 27.3343H6.83601H6.83619H6.99761C7.45393 27.3343 7.83879 27.0163 8.05191 26.6128C8.61062 25.5549 9.72177 24.834 11.0013 24.834C12.8423 24.834 14.3346 26.3264 14.3346 28.1673C14.3346 30.0083 12.8423 31.5007 11.0013 31.5007C9.72195 31.5007 8.61094 30.7799 8.05215 29.7223C7.839 29.3189 7.45419 29.001 6.99794 29.001H6.83594H6.83568C6.20365 29.0008 5.58035 28.9105 4.98319 28.7368C4.27443 28.5307 3.47052 28.9743 3.58347 29.7037C3.5904 29.7485 3.59777 29.7932 3.60557 29.8379C3.77868 30.8296 4.16119 31.773 4.7276 32.6052C5.29401 33.4374 6.0313 34.1394 6.89034 34.6642C7.74938 35.1891 8.71043 35.5248 9.70943 35.649C10.7084 35.7732 11.7224 35.683 12.6838 35.3845C13.6452 35.086 14.532 34.586 15.2849 33.9178C16.0379 33.2496 16.6398 32.4286 17.0505 31.5095C17.4612 30.5904 17.6712 29.5943 17.6666 28.5876L17.6629 27.7568C17.6629 27.7554 17.664 27.7543 17.6654 27.7543C17.6668 27.7543 17.668 27.7531 17.668 27.7517V23.8378C17.668 23.3816 17.35 22.9967 16.9465 22.7836C15.8888 22.2248 15.168 21.1138 15.168 19.8343C15.168 17.9934 16.6604 16.501 18.5013 16.501C20.3423 16.501 21.8346 17.9934 21.8346 19.8343C21.8346 21.1138 21.1138 22.2248 20.0561 22.7836C19.6526 22.9967 19.3346 23.3816 19.3346 23.8378V27.7523C19.3346 27.7534 19.3355 27.7543 19.3366 27.7543C19.3376 27.7543 19.3385 27.7551 19.3385 27.7562L19.3347 28.5876L19.3346 28.6168V28.6228C19.3351 29.6175 19.545 30.6011 19.9509 31.5095C20.3616 32.4286 20.9634 33.2496 21.7164 33.9178C22.4694 34.586 23.3561 35.086 24.3175 35.3845C25.2789 35.683 26.2929 35.7732 27.2919 35.649C28.2909 35.5248 29.252 35.1891 30.111 34.6642C30.97 34.1394 31.7073 33.4374 32.2738 32.6052C32.8402 31.773 33.2227 30.8296 33.3958 29.8379C33.4035 29.7935 33.4108 29.7491 33.4177 29.7047C33.5308 28.9754 32.7271 28.5317 32.0184 28.7375C31.4219 28.9107 30.7994 29.0008 30.1682 29.001H30.168H30.0047C29.5484 29.001 29.1636 29.3189 28.9505 29.7223C28.3917 30.7799 27.2807 31.5007 26.0013 31.5007C24.1604 31.5007 22.668 30.0083 22.668 28.1673C22.668 26.3264 24.1604 24.834 26.0013 24.834C27.2808 24.834 28.392 25.5549 28.9507 26.6128C29.1638 27.0163 29.5487 27.3343 30.005 27.3343H30.1677H30.168C31.3798 27.3339 32.5487 26.8912 33.4562 26.0912L33.5258 26.0282C34.0465 25.5574 34.4618 24.9818 34.7445 24.3393C35.0272 23.6967 35.1709 23.0017 35.1661 22.2997C35.1614 21.5977 35.0084 20.9047 34.7171 20.266C34.6838 20.1929 34.6487 20.1207 34.6119 20.0494C34.348 19.5377 33.6753 19.5006 33.2092 19.8388C32.7365 20.1817 32.2292 20.4772 31.6945 20.72C30.5611 21.2347 29.3307 21.5009 28.0859 21.5006H28.0857H27.6693C27.209 21.5006 26.8359 21.1275 26.8359 20.6673C26.8359 20.207 27.209 19.8339 27.6693 19.8339H28.0859H28.0862C29.0931 19.8342 30.0885 19.6189 31.0053 19.2025C31.8583 18.8151 32.6249 18.2621 33.261 17.5762L33.401 17.4172C34.3011 16.3954 34.8871 15.1356 35.0887 13.789C35.2904 12.4424 35.0991 11.0662 34.5379 9.82556C33.9766 8.58497 33.0693 7.53271 31.9248 6.79508C30.6359 5.96444 29.0925 5.57518 27.5664 5.69461C27.1688 5.72573 26.8049 5.4708 26.6984 5.0865C26.4561 4.21283 25.9055 3.45651 25.1485 2.95755C24.3915 2.45858 23.4794 2.25075 22.581 2.37254C21.6826 2.49433 20.8587 2.93748 20.2619 3.61996C19.6651 4.30235 19.3357 5.17779 19.3347 6.08429V7.75048C19.3347 8.24294 19.4317 8.73058 19.6202 9.18555C19.8086 9.64052 20.0848 10.0539 20.4331 10.4021C20.7813 10.7504 21.1947 11.0266 21.6497 11.215C22.1046 11.4035 22.5923 11.5005 23.0847 11.5005C23.391 11.5005 23.6521 11.2897 23.774 11.0087C24.2866 9.82731 25.4635 9.00098 26.8333 9.00098C28.6743 9.00098 30.1667 10.4934 30.1667 12.3343C30.1667 14.1753 28.6743 15.6676 26.8333 15.6676C25.463 15.6676 24.2858 14.8408 23.7735 13.6588C23.6517 13.3778 23.3909 13.1672 23.0847 13.1672C22.3734 13.1672 21.669 13.027 21.0118 12.7548C20.3547 12.4826 19.7575 12.0836 19.2546 11.5806ZM18.5013 21.501C19.4218 21.501 20.168 20.7548 20.168 19.8343C20.168 18.9138 19.4218 18.1676 18.5013 18.1676C17.5808 18.1676 16.8346 18.9138 16.8346 19.8343C16.8346 20.7548 17.5808 21.501 18.5013 21.501ZM27.668 28.1673C27.668 27.2468 26.9218 26.5007 26.0013 26.5007C25.0808 26.5007 24.3346 27.2468 24.3346 28.1673C24.3346 29.0878 25.0808 29.834 26.0013 29.834C26.9218 29.834 27.668 29.0878 27.668 28.1673ZM26.8333 10.6676C25.9358 10.6676 25.204 11.3771 25.1681 12.2658V12.4028C25.204 13.2915 25.9358 14.001 26.8333 14.001C27.7538 14.001 28.5 13.2548 28.5 12.3343C28.5 11.4138 27.7538 10.6676 26.8333 10.6676ZM9.33594 28.2338C9.37084 29.1235 10.1031 29.834 11.0013 29.834C11.9218 29.834 12.668 29.0878 12.668 28.1673C12.668 27.2468 11.9218 26.5007 11.0013 26.5007C10.1031 26.5007 9.37084 27.2112 9.33594 28.1008V28.2338ZM10.1693 14.001C11.058 14.001 11.7843 13.3054 11.8333 12.4289V12.2397C11.7843 11.3633 11.058 10.6676 10.1693 10.6676C9.2488 10.6676 8.5026 11.4138 8.5026 12.3343C8.5026 13.2548 9.2488 14.001 10.1693 14.001Z" fill="url(#paint0_linear_66_183)"/>
<defs>
<linearGradient id="paint0_linear_66_183" x1="-6.52891" y1="-121.655" x2="111.202" y2="-78.3717" gradientUnits="userSpaceOnUse">
<stop offset="0.390625" stop-color="#447EF2"/>
<stop offset="1" stop-color="#3FD3F3"/>
</linearGradient>
</defs>
</svg>
