<svg width="28" height="29" viewBox="0 0 28 29" fill="none" xmlns="http://www.w3.org/2000/svg">
<path fill-rule="evenodd" clip-rule="evenodd" d="M4.08073 1.66699H23.9141C24.5329 1.66699 25.1264 1.91283 25.564 2.35041C26.0016 2.78799 26.2474 3.38149 26.2474 4.00033V16.8337C26.2474 17.4525 26.0016 18.046 25.564 18.4836C25.1264 18.9212 24.5329 19.167 23.9141 19.167H4.08073C3.46189 19.167 2.8684 18.9212 2.43081 18.4836C1.99323 18.046 1.7474 17.4525 1.7474 16.8337V4.00033C1.7474 3.38149 1.99323 2.78799 2.43081 2.35041C2.8684 1.91283 3.46189 1.66699 4.08073 1.66699ZM12.2474 8.55248C12.2474 8.09431 12.7514 7.81498 13.1399 8.05781L16.1226 9.922C16.4882 10.1505 16.4882 10.6829 16.1226 10.9113L13.1399 12.7755C12.7514 13.0184 12.2474 12.739 12.2474 12.2809V8.55248ZM16.3307 26.7507C17.6194 26.7507 18.6641 25.706 18.6641 24.4173C18.6641 23.1287 17.6194 22.084 16.3307 22.084C15.2689 22.084 14.3727 22.7933 14.0901 23.7639C14.0782 23.8047 14.0413 23.8337 13.9987 23.8337H1.16536C0.843198 23.8337 0.582031 24.0948 0.582031 24.417C0.582031 24.7392 0.843198 25.0003 1.16536 25.0003H13.9987C14.0411 25.0003 14.078 25.0292 14.0899 25.0699C14.3722 26.041 15.2686 26.7507 16.3307 26.7507ZM22.1654 23.8337C21.8432 23.8337 21.582 24.0948 21.582 24.417C21.582 24.7392 21.8432 25.0003 22.1654 25.0003H26.832C27.1542 25.0003 27.4154 24.7392 27.4154 24.417C27.4154 24.0948 27.1542 23.8337 26.832 23.8337H22.1654Z" fill="url(#paint0_linear_134_666)"/>
<defs>
<linearGradient id="paint0_linear_134_666" x1="-4.31903" y1="-81.9452" x2="80.3656" y2="-48.6105" gradientUnits="userSpaceOnUse">
<stop offset="0.401042" stop-color="#2F6CE6"/>
<stop offset="1" stop-color="#32C7E8"/>
</linearGradient>
</defs>
</svg>
