<svg width="41" height="40" viewBox="0 0 41 40" fill="none" xmlns="http://www.w3.org/2000/svg">
<g clip-path="url(#clip0_66_164)">
<g filter="url(#filter0_d_66_164)">
<path fill-rule="evenodd" clip-rule="evenodd" d="M6.33464 2.49967C5.67159 2.49967 5.03571 2.76307 4.56687 3.23191C4.09803 3.70075 3.83464 4.33663 3.83464 4.99967V23.333C3.83464 23.996 4.09803 24.6319 4.56687 25.1008C5.03571 25.5696 5.67159 25.833 6.33464 25.833H34.668C35.331 25.833 35.9669 25.5696 36.4357 25.1008C36.9046 24.6319 37.168 23.996 37.168 23.333V4.99967C37.168 4.33663 36.9046 3.70075 36.4357 3.23191C35.9669 2.76307 35.331 2.49967 34.668 2.49967H6.33464ZM3.38836 2.0534C4.16976 1.272 5.22957 0.833008 6.33464 0.833008H34.668C35.773 0.833008 36.8328 1.272 37.6142 2.0534C38.3956 2.8348 38.8346 3.8946 38.8346 4.99967V23.333C38.8346 24.4381 38.3956 25.4979 37.6142 26.2793C36.8328 27.0607 35.773 27.4997 34.668 27.4997H6.33464C5.22957 27.4997 4.16976 27.0607 3.38836 26.2793C2.60696 25.4979 2.16797 24.4381 2.16797 23.333V4.99967C2.16797 3.89461 2.60696 2.8348 3.38836 2.0534ZM17.168 9.99935C17.168 9.34482 17.8879 8.94578 18.443 9.29268L25.1096 13.4593C25.6319 13.7857 25.6319 14.5463 25.1096 14.8727L18.443 19.0393C17.8879 19.3862 17.168 18.9872 17.168 18.3327V9.99935ZM20.1096 12.2998C19.5546 11.9529 18.8346 12.3519 18.8346 13.0064V15.3256C18.8346 15.9801 19.5546 16.3792 20.1096 16.0323L21.965 14.8727C22.4872 14.5463 22.4872 13.7857 21.965 13.4593L20.1096 12.2998ZM23.8346 31.6667C22.4812 31.6667 21.3789 32.7422 21.3359 34.0852V34.2481C21.3789 35.5911 22.4812 36.6667 23.8346 36.6667C25.2153 36.6667 26.3346 35.5474 26.3346 34.1667C26.3346 32.786 25.2153 31.6667 23.8346 31.6667ZM23.8346 30C22.0574 30 20.54 31.1127 19.9412 32.6796C19.7997 33.0497 19.4666 33.333 19.0703 33.333H2.16927C1.70903 33.333 1.33594 33.7061 1.33594 34.1663C1.33594 34.6266 1.70903 34.9997 2.16927 34.9997H19.07C19.4664 34.9997 19.7995 35.283 19.941 35.6533C20.5397 37.2203 22.0572 38.3333 23.8346 38.3333C26.1358 38.3333 28.0013 36.4679 28.0013 34.1667C28.0013 31.8655 26.1358 30 23.8346 30ZM32.1693 33.333C31.709 33.333 31.3359 33.7061 31.3359 34.1663C31.3359 34.6266 31.709 34.9997 32.1693 34.9997H38.8359C39.2962 34.9997 39.6693 34.6266 39.6693 34.1663C39.6693 33.7061 39.2962 33.333 38.8359 33.333H32.1693Z" fill="url(#paint0_linear_66_164)"/>
</g>
</g>
<defs>
<filter id="filter0_d_66_164" x="-5.33073" y="-2.50033" width="51.6654" height="50.8333" filterUnits="userSpaceOnUse" color-interpolation-filters="sRGB">
<feFlood flood-opacity="0" result="BackgroundImageFix"/>
<feColorMatrix in="SourceAlpha" type="matrix" values="0 0 0 0 0 0 0 0 0 0 0 0 0 0 0 0 0 0 127 0" result="hardAlpha"/>
<feOffset dy="3.33333"/>
<feGaussianBlur stdDeviation="3.33333"/>
<feComposite in2="hardAlpha" operator="out"/>
<feColorMatrix type="matrix" values="0 0 0 0 0 0 0 0 0 0 0 0 0 0 0 0 0 0 0.12 0"/>
<feBlend mode="normal" in2="BackgroundImageFix" result="effect1_dropShadow_66_164"/>
<feBlend mode="normal" in="SourceGraphic" in2="effect1_dropShadow_66_164" result="shape"/>
</filter>
<linearGradient id="paint0_linear_66_164" x1="-5.66558" y1="-124.168" x2="116.74" y2="-78.1266" gradientUnits="userSpaceOnUse">
<stop offset="0.390625" stop-color="#447EF2"/>
<stop offset="1" stop-color="#3FD3F3"/>
</linearGradient>
<clipPath id="clip0_66_164">
<rect width="40" height="40" fill="white" transform="translate(0.5)"/>
</clipPath>
</defs>
</svg>
