<svg width="28" height="29" viewBox="0 0 28 29" fill="none" xmlns="http://www.w3.org/2000/svg">
<path fill-rule="evenodd" clip-rule="evenodd" d="M16.6667 1C16.9888 1 17.25 1.26117 17.25 1.58333V8.54167C17.25 8.86383 17.5112 9.125 17.8333 9.125H24.7917C25.1138 9.125 25.375 9.38617 25.375 9.70833V26.1875C25.375 26.403 25.2894 26.6097 25.137 26.762C24.9847 26.9144 24.778 27 24.5625 27H3.4375C3.22201 27 3.01535 26.9144 2.86298 26.762C2.7106 26.6097 2.625 26.403 2.625 26.1875V1.8125C2.625 1.59701 2.7106 1.39035 2.86298 1.23798C3.01535 1.0856 3.22201 1 3.4375 1H16.6667ZM13.5938 7.5H7.90625C7.79851 7.5 7.69517 7.5428 7.61899 7.61899C7.5428 7.69517 7.5 7.79851 7.5 7.90625V8.71875C7.5 8.82649 7.5428 8.92983 7.61899 9.00601C7.69517 9.0822 7.79851 9.125 7.90625 9.125H13.5938C13.7015 9.125 13.8048 9.0822 13.881 9.00601C13.9572 8.92983 14 8.82649 14 8.71875V7.90625C14 7.79851 13.9572 7.69517 13.881 7.61899C13.8048 7.5428 13.7015 7.5 13.5938 7.5ZM7.61899 20.381C7.69517 20.4572 7.79851 20.5 7.90625 20.5H20.0938C20.2015 20.5 20.3048 20.4572 20.381 20.381C20.4572 20.3048 20.5 20.2015 20.5 20.0938V19.2812C20.5 19.1735 20.4572 19.0702 20.381 18.994C20.3048 18.9178 20.2015 18.875 20.0938 18.875H7.90625C7.79851 18.875 7.69517 18.9178 7.61899 18.994C7.5428 19.0702 7.5 19.1735 7.5 19.2812V20.0938C7.5 20.2015 7.5428 20.3048 7.61899 20.381ZM7.90625 14.8125H20.0938C20.2015 14.8125 20.3048 14.7697 20.381 14.6935C20.4572 14.6173 20.5 14.514 20.5 14.4062V13.5938C20.5 13.486 20.4572 13.3827 20.381 13.3065C20.3048 13.2303 20.2015 13.1875 20.0938 13.1875H7.90625C7.79851 13.1875 7.69517 13.2303 7.61899 13.3065C7.5428 13.3827 7.5 13.486 7.5 13.5938V14.4062C7.5 14.514 7.5428 14.6173 7.61899 14.6935C7.69517 14.7697 7.79851 14.8125 7.90625 14.8125ZM19.4583 7.5C19.1362 7.5 18.875 7.23883 18.875 6.91667V3.22079C18.875 2.7011 19.5033 2.44083 19.8708 2.80831L23.5667 6.50419C23.9342 6.87167 23.6739 7.5 23.1542 7.5H19.4583Z" fill="url(#paint0_linear_160_747)"/>
<defs>
<linearGradient id="paint0_linear_160_747" x1="-1.53025" y1="-85.6667" x2="73.6037" y2="-61.4758" gradientUnits="userSpaceOnUse">
<stop offset="0.401042" stop-color="#2F6CE6"/>
<stop offset="1" stop-color="#32C7E8"/>
</linearGradient>
</defs>
</svg>
